REM DIRINDEX 1\2,1\3
REM DIRNAME folder01,folder02,folder03
TITLE ""
FILE "CD2Track24.mp3" MP3
  TRACK 01 AUDIO
    TITLE "0:"
    INDEX 01 00:00:00
  TRACK 02 AUDIO
    TITLE "2:cjc102_3474"
    INDEX 01 00:00:27
  TRACK 03 AUDIO
    TITLE "0:"
    INDEX 01 00:01:05
  TRACK 04 AUDIO
    TITLE "3:cjc102_3475"
    INDEX 01 00:01:19
  TRACK 05 AUDIO
    TITLE "0:"
    INDEX 01 00:02:57
  TRACK 06 AUDIO
    TITLE "3:cjc102_3476"
    INDEX 01 00:03:02
  TRACK 07 AUDIO
    TITLE "0:"
    INDEX 01 00:07:02
  TRACK 08 AUDIO
    TITLE "2:cjc102_3477"
    INDEX 01 00:07:07
  TRACK 09 AUDIO
    TITLE "0:"
    INDEX 01 00:08:23
  TRACK 10 AUDIO
    TITLE "3:cjc102_3478"
    INDEX 01 00:09:26
  TRACK 11 AUDIO
    TITLE "0:"
    INDEX 01 00:10:06
  TRACK 12 AUDIO
    TITLE "2:cjc102_3479"
    INDEX 01 00:10:10
  TRACK 13 AUDIO
    TITLE "0:"
    INDEX 01 00:11:11
  TRACK 14 AUDIO
    TITLE "3:cjc102_3480"
    INDEX 01 00:12:28
  TRACK 15 AUDIO
    TITLE "0:"
    INDEX 01 00:12:73
  TRACK 16 AUDIO
    TITLE "2:cjc102_3481"
    INDEX 01 00:13:00
  TRACK 17 AUDIO
    TITLE "0:"
    INDEX 01 00:14:00
  TRACK 18 AUDIO
    TITLE "3:cjc102_3482"
    INDEX 01 00:15:30
  TRACK 19 AUDIO
    TITLE "0:"
    INDEX 01 00:16:32
  TRACK 20 AUDIO
    TITLE "2:cjc102_3483"
    INDEX 01 00:16:40
  TRACK 21 AUDIO
    TITLE "0:"
    INDEX 01 00:17:47
  TRACK 22 AUDIO
    TITLE "3:cjc102_3484"
    INDEX 01 00:18:56
  TRACK 23 AUDIO
    TITLE "0:"
    INDEX 01 00:19:50
  TRACK 24 AUDIO
    TITLE "2:cjc102_3485"
    INDEX 01 00:20:16
  TRACK 25 AUDIO
    TITLE "0:"
    INDEX 01 00:21:13
  TRACK 26 AUDIO
    TITLE "3:cjc102_3486"
    INDEX 01 00:22:44
  TRACK 27 AUDIO
    TITLE "0:"
    INDEX 01 00:23:24
  TRACK 28 AUDIO
    TITLE "2:cjc102_3487"
    INDEX 01 00:23:57
  TRACK 29 AUDIO
    TITLE "0:"
    INDEX 01 00:24:51
  TRACK 30 AUDIO
    TITLE "3:cjc102_3488"
    INDEX 01 00:25:48
  TRACK 31 AUDIO
    TITLE "0:"
    INDEX 01 00:26:48
  TRACK 32 AUDIO
    TITLE "2:cjc102_3489"
    INDEX 01 00:27:18
  TRACK 33 AUDIO
    TITLE "0:"
    INDEX 01 00:28:23
  TRACK 34 AUDIO
    TITLE "3:cjc102_3490"
    INDEX 01 00:29:74
  TRACK 35 AUDIO
    TITLE "0:"
    INDEX 01 00:30:69
  TRACK 36 AUDIO
    TITLE "2:cjc102_3491"
    INDEX 01 00:31:08
  TRACK 37 AUDIO
    TITLE "0:"
    INDEX 01 00:32:23
  TRACK 38 AUDIO
    TITLE "3:cjc102_3492"
    INDEX 01 00:33:36
  TRACK 39 AUDIO
    TITLE "0:"
    INDEX 01 00:34:32
  TRACK 40 AUDIO
    TITLE "2:cjc102_3493"
    INDEX 01 00:34:67
  TRACK 41 AUDIO
    TITLE "0:"
    INDEX 01 00:36:11
  TRACK 42 AUDIO
    TITLE "3:cjc102_3494"
    INDEX 01 00:36:35
  TRACK 43 AUDIO
    TITLE "0:"
    INDEX 01 00:37:26
  TRACK 44 AUDIO
    TITLE "2:cjc102_3495"
    INDEX 01 00:38:57
  TRACK 45 AUDIO
    TITLE "0:"
    INDEX 01 00:39:72
  TRACK 46 AUDIO
    TITLE "3:cjc102_3496"
    INDEX 01 00:41:14
  TRACK 47 AUDIO
    TITLE "0:"
    INDEX 01 00:42:08
  TRACK 48 AUDIO
    TITLE "2:cjc102_3497"
    INDEX 01 00:42:16
  TRACK 49 AUDIO
    TITLE "0:"
    INDEX 01 00:43:48
  TRACK 50 AUDIO
    TITLE "3:cjc102_3498"
    INDEX 01 00:44:16
  TRACK 51 AUDIO
    TITLE "0:"
    INDEX 01 00:45:33
  TRACK 52 AUDIO
    TITLE "2:cjc102_3499"
    INDEX 01 00:46:17
  TRACK 53 AUDIO
    TITLE "0:"
    INDEX 01 00:47:36
  TRACK 54 AUDIO
    TITLE "3:cjc102_3500"
    INDEX 01 00:48:36
  TRACK 55 AUDIO
    TITLE "0:"
    INDEX 01 00:49:47
  TRACK 56 AUDIO
    TITLE "2:cjc102_3501"
    INDEX 01 00:49:65
  TRACK 57 AUDIO
    TITLE "0:"
    INDEX 01 00:50:72
  TRACK 58 AUDIO
    TITLE "3:cjc102_3502"
    INDEX 01 00:52:30
  TRACK 59 AUDIO
    TITLE "0:"
    INDEX 01 00:53:51
  TRACK 60 AUDIO
    TITLE "2:cjc102_3503"
    INDEX 01 00:53:57
  TRACK 61 AUDIO
    TITLE "0:"
    INDEX 01 00:54:68
  TRACK 62 AUDIO
    TITLE "3:cjc102_3504"
    INDEX 01 00:55:50
  TRACK 63 AUDIO
    TITLE "0:"
    INDEX 01 00:56:69
  TRACK 64 AUDIO
    TITLE "2:cjc102_3505"
    INDEX 01 00:57:41
  TRACK 65 AUDIO
    TITLE "0:"
    INDEX 01 00:58:48
  TRACK 66 AUDIO
    TITLE "3:cjc102_3506"
    INDEX 01 00:59:43
  TRACK 67 AUDIO
    TITLE "0:"
    INDEX 01 01:00:53
  TRACK 68 AUDIO
    TITLE "2:cjc102_3507"
    INDEX 01 01:01:34
  TRACK 69 AUDIO
    TITLE "0:"
    INDEX 01 01:02:38
  TRACK 70 AUDIO
    TITLE "3:cjc102_3508"
    INDEX 01 01:03:08
  TRACK 71 AUDIO
    TITLE "0:"
    INDEX 01 01:04:17
  TRACK 72 AUDIO
    TITLE "2:cjc102_3509"
    INDEX 01 01:04:54
  TRACK 73 AUDIO
    TITLE "0:"
    INDEX 01 01:06:14
  TRACK 74 AUDIO
    TITLE "3:cjc102_3510"
    INDEX 01 01:07:29
  TRACK 75 AUDIO
    TITLE "0:"
    INDEX 01 01:08:50
  TRACK 76 AUDIO
    TITLE "2:cjc102_3511"
    INDEX 01 01:09:10
  TRACK 77 AUDIO
    TITLE "0:"
    INDEX 01 01:10:18
  TRACK 78 AUDIO
    TITLE "2:cjc102_3512"
    INDEX 01 01:10:63
  TRACK 79 AUDIO
    TITLE "0:"
    INDEX 01 01:12:03
  TRACK 80 AUDIO
    TITLE "3:cjc102_3513"
    INDEX 01 01:13:06
  TRACK 81 AUDIO
    TITLE "0:"
    INDEX 01 01:14:29
  TRACK 82 AUDIO
    TITLE "2:cjc102_3514"
    INDEX 01 01:15:50
  TRACK 83 AUDIO
    TITLE "0:"
    INDEX 01 01:16:60
  TRACK 84 AUDIO
    TITLE "2:cjc102_3515"
    INDEX 01 01:17:32
  TRACK 85 AUDIO
    TITLE "0:"
    INDEX 01 01:18:47
  TRACK 86 AUDIO
    TITLE "3:cjc102_3516"
    INDEX 01 01:19:56
  TRACK 87 AUDIO
    TITLE "0:"
    INDEX 01 01:21:06
  TRACK 88 AUDIO
    TITLE "2:cjc102_3517"
    INDEX 01 01:21:61
  TRACK 89 AUDIO
    TITLE "0:"
    INDEX 01 01:22:50
  TRACK 90 AUDIO
    TITLE "2:cjc102_3518"
    INDEX 01 01:23:38
  TRACK 91 AUDIO
    TITLE "0:"
    INDEX 01 01:24:32
  TRACK 92 AUDIO
    TITLE "3:cjc102_3519"
    INDEX 01 01:25:55
  TRACK 93 AUDIO
    TITLE "0:"
    INDEX 01 01:26:66
  TRACK 94 AUDIO
    TITLE "2:cjc102_3520"
    INDEX 01 01:27:38
  TRACK 95 AUDIO
    TITLE "0:"
    INDEX 01 01:28:47
  TRACK 96 AUDIO
    TITLE "2:cjc102_3521"
    INDEX 01 01:29:21
  TRACK 97 AUDIO
    TITLE "0:"
    INDEX 01 01:30:32
  TRACK 98 AUDIO
    TITLE "3:cjc102_3522"
    INDEX 01 01:32:15
  TRACK 99 AUDIO
    TITLE "0:"
    INDEX 01 01:33:44
  TRACK 100 AUDIO
    TITLE "2:cjc102_3523"
    INDEX 01 01:34:38
  TRACK 101 AUDIO
    TITLE "0:"
    INDEX 01 01:36:54
  TRACK 102 AUDIO
    TITLE "3:cjc102_3524"
    INDEX 01 01:38:04
  TRACK 103 AUDIO
    TITLE "0:"
    INDEX 01 01:39:23
  TRACK 104 AUDIO
    TITLE "2:cjc102_3525"
    INDEX 01 01:40:11
  TRACK 105 AUDIO
    TITLE "0:"
    INDEX 01 01:42:63
  TRACK 106 AUDIO
    TITLE "3:cjc102_3526"
    INDEX 01 01:44:36
  TRACK 107 AUDIO
    TITLE "0:"
    INDEX 01 01:45:65
  TRACK 108 AUDIO
    TITLE "2:cjc102_3527"
    INDEX 01 01:46:23
  TRACK 109 AUDIO
    TITLE "0:"
    INDEX 01 01:50:41
  TRACK 110 AUDIO
    TITLE "3:cjc102_3528"
    INDEX 01 01:52:14
  TRACK 111 AUDIO
    TITLE "0:"
    INDEX 01 01:53:45
  TRACK 112 AUDIO
    TITLE "2:cjc102_3529"
    INDEX 01 01:53:70
  TRACK 113 AUDIO
    TITLE "0:"
    INDEX 01 01:58:34
